HIERARCHY
ROOT Hips
{
  OFFSET 107.989 82.4592 -43.7687
  CHANNELS 6 Xposition Yposition Zposition Zrotation Xrotation Yrotation
  JOINT ToSpine
  {
    OFFSET -2.69724 7.43032 -0.144315
    CHANNELS 3 Zrotation Xrotation Yrotation
    JOINT Spine
    {
      OFFSET -0.0310711 10.7595 1.96963
      CHANNELS 3 Zrotation Xrotation Yrotation
      JOINT Spine1
      {
        OFFSET 13.1342 3.43533 0.764692
        CHANNELS 3 Zrotation Xrotation Yrotation
        JOINT Neck
        {
          OFFSET 29.8703 7.82586 -0.130764
          CHANNELS 3 Zrotation Xrotation Yrotation
          JOINT Head
          {
            OFFSET 9.52751 0.295786 -0.907742
            CHANNELS 3 Zrotation Xrotation Yrotation
            End Site
            {
              OFFSET 16.4037 0.713936 2.7358
            }
          }
        }
        JOINT LeftShoulder
        {
          OFFSET 27.5574 4.95586 2.47156
          CHANNELS 3 Zrotation Xrotation Yrotation
          JOINT LeftArm
          {
            OFFSET 1.20734 -0.998971 20.1238
            CHANNELS 3 Zrotation Xrotation Yrotation
            JOINT LeftForeArm
            {
              OFFSET 26.8049 -0.0536703 -0.155908
              CHANNELS 3 Zrotation Xrotation Yrotation
              JOINT LeftHand
              {
                OFFSET 26.6817 0 0.320147
                CHANNELS 3 Zrotation Xrotation Yrotation
                End Site
                {
                  OFFSET 18.6119 0 0.382219
                }
              }
            }
          }
        }
        JOINT RightShoulder
        {
          OFFSET 27.5927 4.71444 -2.65209
          CHANNELS 3 Zrotation Xrotation Yrotation
          JOINT RightArm
          {
            OFFSET 2.83739 -1.17114 -18.7564
            CHANNELS 3 Zrotation Xrotation Yrotation
            JOINT RightForeArm
            {
              OFFSET 28.839 -0.0548439 1.22491
              CHANNELS 3 Zrotation Xrotation Yrotation
              JOINT RightHand
              {
                OFFSET 26.5114 0 -0.101894
                CHANNELS 3 Zrotation Xrotation Yrotation
                End Site
                {
                  OFFSET 18.2168 0 0
                }
              }
            }
          }
        }
      }
    }
  }
  JOINT LeftUpLeg
  {
    OFFSET -4.76168 -1.9167 -10.2353
    CHANNELS 3 Zrotation Xrotation Yrotation
    JOINT LeftLeg
    {
      OFFSET 2.55951 -42.0585 -8.02213
      CHANNELS 3 Zrotation Xrotation Yrotation
      JOINT LeftFoot
      {
        OFFSET 3.16357 -42.5282 -3.95426
        CHANNELS 3 Zrotation Xrotation Yrotation
        JOINT LeftToeBase
        {
          OFFSET 0.346054 -6.02161 12.8035
          CHANNELS 3 Zrotation Xrotation Yrotation
          End Site
          {
            OFFSET 0.134235 -1.35082 5.13018
          }
        }
      }
    }
  }
  JOINT RightUpLeg
  {
    OFFSET -4.94151 -1.41743 10.6446
    CHANNELS 3 Zrotation Xrotation Yrotation
    JOINT RightLeg
    {
      OFFSET -2.56294 -42.0364 -7.94377
      CHANNELS 3 Zrotation Xrotation Yrotation
      JOINT RightFoot
      {
        OFFSET -3.0952 -42.555 -4.02241
        CHANNELS 3 Zrotation Xrotation Yrotation
        JOINT RightToeBase
        {
          OFFSET -0.0828122 -6.13587 12.8035
          CHANNELS 3 Zrotation Xrotation Yrotation
          End Site
          {
            OFFSET -0.131328 -1.35082 5.13018
          }
        }
      }
    }
  }
}
MOTION
Frames:	6
Frame Time:	0.0333333
246.878 90.5435 -221.188 -52.2875 -49.3181 -147.067 -70.1915 0 88.8779 107.417 66.6283 -21.0138 -1.87579 15.9975 5.407 -156.773 17.4673 179.936 -158.434 57.266 -165.344 0.501201 -12.7289 -32.0123 -74.6165 52.1604 -74.1221 15.4229 4.11048 -74.8523 0.420957 0.000575598 0.35866 -2.00914 6.24304 46.5723 -69.5214 -39.5389 68.2986 15.6019 -6.40164 68.1613 0.58676 0.000331244 0.0646652 -44.5118 2.45065 87.4543 -53.1775 85.0997 48.6608 -1.1954 0.18315 0.0802397 5.62447 -13.3793 11.5442 -28.4256 8.81694 75.093 3.4276 57.2914 -3.179 -8.14543 -22.2637 1.36164 2.56085 0.0630821 -15.8631 
241.133 90.01 -213.242 -54.3887 -43.8351 -150.537 -70.1915 0 88.8779 107.016 71.0487 -18.0759 -0.580264 21.0177 3.03801 -158.937 18.3409 177.957 -156.18 57.9207 -169.415 0.128363 -14.1587 -33.7773 -76.3728 51.5626 -70.1263 17.3583 7.35666 -67.1744 0.420957 0.000575598 0.35866 -1.95435 6.10936 46.4126 -72.3228 -37.7935 77.6811 17.2101 -7.01731 68.3889 0.58676 0.000331244 0.0646652 -30.3228 5.33222 89.4773 -108.293 85.7667 105.906 -0.00896994 -3.72282 -0.380958 6.65803 -15.1465 13.1716 -33.7594 13.4384 80.7672 3.54772 57.8765 -2.95592 -8.11692 -26.3012 1.39539 2.83782 -5.01416 -18.8685 
235.05 90.168 -204.865 -55.1091 -41.5469 -153.431 -70.1915 0 88.8779 109.193 72.6563 -20.4066 -2.25642 23.4631 1.86375 -158.197 19.0417 177.292 -156.614 58.6098 -169.454 0.475219 -12.7412 -32.991 -73.8121 53.5573 -65.4072 12.9568 5.76082 -65.9294 0.420957 0.000575598 0.35866 -1.95277 6.50337 44.4686 -73.2166 -40.549 84.8427 18.7585 -5.69035 73.6036 0.58676 0.000331244 0.0646652 -19.1712 5.4885 89.7002 -53.959 85.5421 53.4036 0.195441 -5.48267 -0.536648 8.24115 -17.6214 15.7823 -42.2706 12.9271 85.3097 3.46161 55.8426 -1.55479 -5.7668 -28.0345 1.70091 2.31337 -8.08062 -14.5614 
227.898 91.115 -195.509 -55.3544 -41.2147 -154.911 -70.1915 0 88.8779 104.431 74.7195 -17.2569 -2.2412 24.9503 2.52502 -155.97 19.9856 175.679 -155.435 59.5313 -169.17 0.775378 -11.496 -31.149 -73.1804 55.9471 -59.145 13.7286 5.32738 -68.6637 0.420957 0.000575598 0.35866 -1.62335 6.2402 40.631 -71.878 -44.8424 90.828 24.3127 -3.61421 81.8788 0.58676 0.000331244 0.0646652 -13.3359 5.39064 89.808 -11.5597 75.1999 10.4136 -0.214392 -6.78402 -0.609111 8.38064 -17.8367 17.3736 -53.3803 11.5303 88.9209 2.47114 49.665 -1.74502 -3.49995 -22.6288 1.70075 1.92961 -14.2371 -5.04739 
220.594 92.5047 -185.172 -54.8332 -41.6057 -155.795 -70.1915 0 88.8779 92.8078 76.2291 -5.37393 -0.33504 26.3211 0.235851 -154.285 20.9604 172.951 -154.581 60.473 -170.365 0.956756 -10.6724 -28.3973 -74.8176 58.2699 -52.0122 19.4503 6.5531 -71.5071 0.420957 0.000575598 0.35866 -1.43403 5.98047 38.705 -68.5065 -46.5364 94.9149 27.3339 0.285478 90.332 0.58676 0.000331244 0.0646652 -12.2848 4.49939 91.154 -3.94908 56.5421 0.18784 -3.9857 -1.1881 0.290966 7.03433 -15.8207 15.0671 -63.8072 8.04898 90.7161 1.49453 42.0194 -3.07542 -1.78291 -8.5582 0.909719 3.36314 -21.8346 18.8154 
213.192 94.0808 -174.86 -54.7774 -40.9452 -157.318 -70.1915 0 88.8779 75.9896 77.3671 12.4033 2.54324 28.2884 -3.00443 -151.269 21.5545 169.916 -152.304 61.0616 -172.263 0.843504 -11.3964 -26.8798 -80.3042 58.2528 -42.1761 17.9905 5.11467 -74.0575 0.420957 0.000575598 0.35866 -1.43896 5.92248 39.0347 -67.3228 -46.2802 92.9658 31.2881 4.46532 97.0515 0.58676 0.000331244 0.0646652 -14.8804 3.67106 92.3015 -2.34151 34.8542 -8.09383 -9.01945 11.9906 2.93912 5.50268 -13.3693 13.4514 -72.1634 3.81079 89.2491 1.75844 35.7553 8.69039 -1.55667 5.81776 -0.0196736 2.62558 -21.0002 0.479197 
